<svg version="1.1" id="Layer_1" xmlns="http://www.w3.org/2000/svg" xmlns:xlink="http://www.w3.org/1999/xlink" x="0px" y="0px" width="100%" viewBox="0 0 435 404" enable-background="new 0 0 435 404" xml:space="preserve">

<path fill="#555555" opacity="1.000000" stroke="none" d="
M277.387421,93.988060 
	C298.785126,104.620628 314.739136,120.812706 324.328857,142.554626 
	C328.506348,152.025833 330.200439,162.592438 332.960114,173.542526 
	C332.675507,180.353760 333.201508,186.433167 332.056000,192.179382 
	C330.326111,200.856995 327.430267,209.302170 324.769104,217.635117 
	C322.001831,221.000504 319.495422,224.576904 316.989075,228.153320 
	C315.097015,229.886597 313.204956,231.619873 310.833771,233.752518 
	C295.841675,243.211823 279.793060,246.634308 262.504700,246.967163 
	C247.123383,244.766266 231.969452,243.560104 217.275909,240.287201 
	C205.539841,237.673065 194.364273,232.542572 182.782349,228.261215 
	C177.050888,224.624146 171.476974,221.254868 165.903076,217.885574 
	C165.242615,216.779129 164.793472,215.446686 163.889114,214.601074 
	C154.380905,205.710480 148.911850,194.775269 147.124863,181.095581 
	C147.309174,176.263123 146.734314,172.091293 147.737228,168.341446 
	C150.468246,158.130096 153.866211,148.097092 156.999908,137.993423 
	C174.237991,108.290657 199.524765,90.702042 234.853851,86.922638 
	C241.520279,87.188278 247.405258,86.733566 253.016190,87.766876 
	C261.242798,89.281906 269.273346,91.861877 277.387421,93.988060 
M168.273987,183.799606 
	C170.415359,194.206894 176.052994,202.504745 185.331192,207.286438 
	C194.712509,212.121262 204.554230,216.496750 214.678391,219.364227 
	C234.714539,225.039093 255.117798,229.201736 276.224396,227.027481 
	C294.066742,225.189484 305.682648,215.295578 310.139709,198.026917 
	C312.993225,186.971130 312.664154,175.934906 309.990784,164.903931 
	C300.073456,123.983231 259.951324,99.604256 221.113571,111.096085 
	C187.061600,121.171822 164.548309,154.238419 168.273987,183.799606 
z" data-index="1" style="opacity: 1; visibility: visible;"></path>
<path fill="#A4A4A4" opacity="1.000000" stroke="none" d="
M262.930847,247.069794 
	C279.793060,246.634308 295.841675,243.211823 310.698303,234.053253 
	C322.142334,237.373383 328.278625,244.757812 328.492767,254.954941 
	C328.693939,264.536835 322.858978,272.935394 313.841492,276.043304 
	C304.360291,279.311035 293.977234,275.791046 288.341095,267.367523 
	C287.520752,266.141479 286.827759,264.830231 286.512024,264.296143 
	C281.766235,265.714447 277.536530,267.529053 273.137634,268.155151 
	C267.519714,268.954742 263.653564,264.938110 259.273804,261.452606 
	C260.226044,256.502167 261.578430,251.785980 262.930847,247.069794 
z" data-index="2" style="opacity: 1;"></path>
<path fill="#FCFCFC" opacity="1.000000" stroke="none" d="
M262.504700,246.967163 
	C261.578430,251.785980 260.226044,256.502167 258.934296,261.605774 
	C258.366913,265.592743 257.114655,268.659424 252.111908,269.120300 
	C249.092422,268.533844 246.820663,268.029755 244.567032,267.454590 
	C224.104721,262.231964 203.645569,256.996857 183.185501,251.765442 
	C181.996582,250.570786 180.807663,249.376144 179.446350,247.575439 
	C180.495956,240.822601 181.717941,234.675781 182.939926,228.528992 
	C194.364273,232.542572 205.539841,237.673065 217.275909,240.287201 
	C231.969452,243.560104 247.123383,244.766266 262.504700,246.967163 
z" data-index="3" style="opacity: 1;"></path>
<path fill="#555555" opacity="1.000000" stroke="none" d="
M183.092651,252.214020 
	C203.645569,256.996857 224.104721,262.231964 244.567032,267.454590 
	C246.820663,268.029755 249.092422,268.533844 251.748962,269.187500 
	C250.629791,272.226685 248.964249,275.081390 247.634750,278.084839 
	C244.095764,286.079529 238.198090,289.170624 228.866302,287.017059 
	C225.739182,286.616089 223.407455,286.312286 221.075714,286.008484 
	C211.321152,283.592346 201.566589,281.176208 191.380356,278.511536 
	C189.012466,277.232605 187.076248,276.202209 185.140030,275.171814 
	C180.456390,268.046234 182.726044,260.259552 183.092651,252.214020 
z" data-index="4" style="opacity: 1;"></path>
<path fill="#535353" opacity="1.000000" stroke="none" d="
M155.119980,236.468155 
	C155.041306,237.125748 154.907867,237.781998 154.891907,238.441116 
	C154.432343,257.437439 144.539368,265.597961 124.981262,262.378571 
	C118.267822,258.589294 114.439583,252.995392 111.022026,247.036545 
	C111.069214,245.876221 111.157196,244.715912 111.157288,243.555588 
	C111.158150,231.974609 116.357216,223.975876 126.024681,220.709900 
	C135.526505,217.499863 144.857727,220.745483 152.130981,230.360107 
	C153.288666,232.832092 154.204330,234.650116 155.119980,236.468155 
z" data-index="5" style="opacity: 1; visibility: visible;"></path>
<path fill="#545454" opacity="1.000000" stroke="none" d="
M141.869385,332.059967 
	C133.333878,327.920105 133.199158,316.367584 137.615341,311.031860 
	C140.687241,307.320282 143.543304,303.430695 146.590210,299.697693 
	C153.083496,291.742279 159.791809,290.728424 168.334396,296.290649 
	C169.016541,296.734802 169.815201,297.000000 170.895554,297.661926 
	C172.778259,299.597290 174.325134,301.219086 175.871994,302.840912 
	C177.169601,307.752380 179.218964,312.606140 179.601227,317.587830 
	C180.299500,326.687622 175.486908,333.748413 168.622818,339.991272 
	C164.116089,337.118347 160.305222,334.186371 156.470108,331.286438 
	C151.129471,327.248108 147.018738,327.476685 141.869385,332.059967 
z" data-index="6" style="opacity: 1;"></path>
<path fill="#545454" opacity="1.000000" stroke="none" d="
M203.934784,340.995026 
	C196.342865,339.839600 191.688446,331.969360 194.346527,323.566437 
	C196.237366,317.588989 198.792099,311.727448 201.792770,306.218414 
	C205.779388,298.899353 212.311981,297.465057 222.668549,301.213959 
	C225.112198,302.645264 227.008423,303.761230 228.904663,304.877197 
	C235.436783,311.250305 239.270737,318.890076 237.929779,328.089966 
	C237.202377,333.080383 234.952805,337.848999 232.990768,343.050598 
	C228.315887,341.545227 224.044785,339.695923 219.763306,337.870972 
	C212.196213,334.645569 209.635468,335.157013 203.934784,340.995026 
z" data-index="7" style="opacity: 1;"></path>
<path fill="#A3A3A3" opacity="1.000000" stroke="none" d="
M325.029968,217.846130 
	C327.430267,209.302170 330.326111,200.856995 332.056000,192.179382 
	C333.201508,186.433167 332.675507,180.353760 332.960144,173.921280 
	C333.348297,173.481567 333.700134,173.484985 333.996307,173.615112 
	C347.005981,179.330414 350.216125,178.376190 346.156982,194.934280 
	C344.970734,199.773254 344.218750,204.717224 343.194580,209.597733 
	C341.779175,216.342453 338.749298,218.444031 331.892303,217.675003 
	C329.930634,217.455002 327.942017,217.475525 325.657410,217.840729 
	C325.108734,218.240921 325.002380,218.091064 325.029968,217.846130 
z" data-index="8" style="opacity: 1; visibility: visible;"></path>
<path fill="#A3A3A3" opacity="1.000000" stroke="none" d="
M156.535263,137.963898 
	C153.866211,148.097092 150.468246,158.130096 147.737228,168.341446 
	C146.734314,172.091293 147.309174,176.263123 147.077011,180.708740 
	C131.839996,177.092407 131.520004,176.570389 134.607788,161.457611 
	C135.734116,155.944931 136.871002,150.433044 137.885437,144.899246 
	C138.737503,140.251144 141.470215,138.015656 146.129532,137.992752 
	C149.443237,137.976471 152.756927,137.954071 156.535263,137.963898 
z" data-index="9" style="opacity: 1; visibility: visible;"></path>
<path fill="#A2A2A2" opacity="1.000000" stroke="none" d="
M277.410522,93.545120 
	C269.273346,91.861877 261.242798,89.281906 253.016190,87.766876 
	C247.405258,86.733566 241.520279,87.188278 235.276535,86.985794 
	C238.124451,75.966652 247.477066,69.670288 258.565125,70.991562 
	C269.511108,72.295906 276.890869,80.943710 277.410522,93.545120 
z" data-index="10" style="opacity: 1; visibility: visible;"></path>
<path fill="#A4A4A4" opacity="1.000000" stroke="none" d="
M182.782349,228.261200 
	C181.717941,234.675781 180.495956,240.822601 179.210968,247.356628 
	C168.199631,248.198639 163.672028,245.591217 159.140594,235.551224 
	C158.990250,232.827988 158.987625,230.860321 158.985016,228.892670 
	C161.082458,225.308228 163.179916,221.723801 165.590210,218.012466 
	C171.476974,221.254868 177.050888,224.624146 182.782349,228.261200 
z" data-index="11" style="opacity: 1;"></path>
<path fill="#F6F6F6" opacity="1.000000" stroke="none" d="
M142.020264,332.362640 
	C147.018738,327.476685 151.129471,327.248108 156.470108,331.286438 
	C160.305222,334.186371 164.116089,337.118347 168.266846,340.061768 
	C170.595535,342.780670 172.169098,345.615417 168.972473,348.404907 
	C166.086655,350.923218 163.541229,349.394409 161.012238,347.375977 
	C154.784973,342.405884 148.458008,337.560699 142.020264,332.362640 
z" data-index="12"></path>
<path fill="#F7F7F7" opacity="1.000000" stroke="none" d="
M204.052643,341.328552 
	C209.635468,335.157013 212.196213,334.645569 219.763306,337.870972 
	C224.044785,339.695923 228.315887,341.545227 232.921661,343.485443 
	C233.683701,345.939178 234.115738,348.290985 234.547791,350.642822 
	C232.158524,351.061554 229.395157,352.466034 227.445587,351.726166 
	C219.551102,348.730164 211.906998,345.074402 204.052643,341.328552 
z" data-index="13"></path>
<path fill="#F1F1F1" opacity="1.000000" stroke="none" d="
M176.029663,302.548889 
	C174.325134,301.219086 172.778259,299.597290 171.293732,297.643433 
	C175.887039,290.152466 180.417984,282.993469 185.044464,275.503174 
	C187.076248,276.202209 189.012466,277.232605 190.976379,278.632721 
	C186.065170,286.753937 181.126251,294.505402 176.029663,302.548889 
z" data-index="14" style="opacity: 1;"></path>
<path fill="#F7F7F7" opacity="1.000000" stroke="none" d="
M110.846634,247.324524 
	C114.439583,252.995392 118.267822,258.589294 124.533615,262.408569 
	C123.583244,263.737488 122.542213,264.795959 121.456238,265.806122 
	C117.638550,269.357300 113.725014,268.399445 111.858284,263.625092 
	C111.445938,262.570496 110.455368,261.400421 109.442047,260.979889 
	C104.354637,258.868530 103.386673,255.041016 107.146919,251.070633 
	C108.277901,249.876450 109.494080,248.762955 110.846634,247.324524 
z" data-index="15" style="opacity: 1; visibility: visible;"></path>
<path fill="#EFEFEF" opacity="1.000000" stroke="none" d="
M228.979004,304.475433 
	C227.008423,303.761230 225.112198,302.645264 223.051270,301.237366 
	C222.319412,296.226929 221.752228,291.508392 221.130386,286.399170 
	C223.407455,286.312286 225.739182,286.616089 228.451065,286.967041 
	C228.905258,292.700714 228.979309,298.387177 228.979004,304.475433 
z" data-index="16"></path>
<path fill="#F1F1F1" opacity="1.000000" stroke="none" d="
M324.769104,217.635117 
	C325.002380,218.091064 325.108734,218.240921 325.475769,218.213501 
	C326.694397,223.468323 324.183258,226.655670 317.373230,228.121109 
	C319.495422,224.576904 322.001831,221.000504 324.769104,217.635117 
z" data-index="17" style="opacity: 1; visibility: visible;"></path>
<path fill="#F1F1F1" opacity="1.000000" stroke="none" d="
M158.591278,228.916702 
	C158.987625,230.860321 158.990250,232.827988 159.000885,235.214203 
	C157.965561,235.830658 156.922226,236.028534 155.499435,236.347290 
	C154.204330,234.650116 153.288666,232.832092 152.232239,230.702072 
	C154.126831,229.906967 156.162201,229.423843 158.591278,228.916702 
z" data-index="18" style="opacity: 1;"></path>
<path fill="#FEFEFE" opacity="1.000000" stroke="none" d="
M168.200668,183.363708 
	C164.548309,154.238419 187.061600,121.171822 221.113571,111.096085 
	C259.951324,99.604256 300.073456,123.983231 309.990784,164.903931 
	C312.664154,175.934906 312.993225,186.971130 310.139709,198.026917 
	C305.682648,215.295578 294.066742,225.189484 276.224396,227.027481 
	C255.117798,229.201736 234.714539,225.039093 214.678391,219.364227 
	C204.554230,216.496750 194.712509,212.121262 185.331192,207.286438 
	C176.052994,202.504745 170.415359,194.206894 168.200668,183.363708 
M205.941666,182.717880 
	C212.388992,186.542068 218.223175,185.606964 221.524704,180.220261 
	C224.511780,175.346619 222.592651,165.425781 217.683853,162.830963 
	C215.776199,161.822540 212.717148,161.644012 210.702301,162.426193 
	C203.038101,165.401520 200.522964,175.420929 205.941666,182.717880 
M272.953339,187.794662 
	C273.040833,186.146042 273.299255,184.485489 273.185028,182.850967 
	C272.777344,177.017334 269.683350,172.400284 265.568573,171.826981 
	C260.052673,171.058487 257.037628,174.714691 254.616776,178.826904 
	C251.204788,184.622726 253.004700,191.447235 258.455780,194.241943 
	C263.967834,197.067886 269.397980,194.906693 272.953339,187.794662 
M236.217941,190.622070 
	C233.236572,189.426620 230.255203,188.231171 226.218277,186.612473 
	C230.993027,193.648514 240.502289,195.494019 245.357452,190.802414 
	C242.259644,190.802414 239.634033,190.802414 236.217941,190.622070 
z" data-index="19" style="opacity: 1; visibility: visible;"></path>
<path fill="#585858" opacity="1.000000" stroke="none" d="
M205.665955,182.449554 
	C200.522964,175.420929 203.038101,165.401520 210.702301,162.426193 
	C212.717148,161.644012 215.776199,161.822540 217.683853,162.830963 
	C222.592651,165.425781 224.511780,175.346619 221.524704,180.220261 
	C218.223175,185.606964 212.388992,186.542068 205.665955,182.449554 
z" data-index="20" style="opacity: 1; visibility: visible;"></path>
<path fill="#575757" opacity="1.000000" stroke="none" d="
M272.818481,188.186951 
	C269.397980,194.906693 263.967834,197.067886 258.455780,194.241943 
	C253.004700,191.447235 251.204788,184.622726 254.616776,178.826904 
	C257.037628,174.714691 260.052673,171.058487 265.568573,171.826981 
	C269.683350,172.400284 272.777344,177.017334 273.185028,182.850967 
	C273.299255,184.485489 273.040833,186.146042 272.818481,188.186951 
z" data-index="21" style="opacity: 1; visibility: visible;"></path>
<path fill="#666666" opacity="1.000000" stroke="none" d="
M236.613174,190.712250 
	C239.634033,190.802414 242.259644,190.802414 245.357452,190.802414 
	C240.502289,195.494019 230.993027,193.648514 226.218277,186.612473 
	C230.255203,188.231171 233.236572,189.426620 236.613174,190.712250 
z" data-index="22" style="opacity: 1; visibility: visible;"></path>
</svg>